<?xml version="1.0" encoding="utf-8"?>
<!-- Generator: Adobe Illustrator 27.5.0, SVG Export Plug-In . SVG Version: 6.00 Build 0)  -->
<svg version="1.1" xmlns="http://www.w3.org/2000/svg" xmlns:xlink="http://www.w3.org/1999/xlink" x="0px" y="0px"
	 viewBox="100 -25 1000 1000" style="enable-background:new 0 0 1200 1200;" xml:space="preserve">
<g id="Background">
	<rect style="fill:transparent;" width="1200" height="1200"/>
</g>
<g id="Graphic_Elements">
	<g>
		<path style="fill:none;stroke:white;stroke-width:25;stroke-miterlimit:10;" d="M682.586,254.396
			c-6.285-0.758-12.689-1.154-19.18-1.154c-87.074,0-157.662,70.58-157.662,157.653v242.54c0,5.819,0.396,11.544,1.171,17.148
			c-31.593-6.887-59.828-22.76-81.891-44.824c-30.044-30.035-48.62-71.544-48.62-117.383l-94.804,2.04l94.804-114.525v-88.494
			c0-43.541,17.647-82.95,46.176-111.487c28.528-28.528,67.945-46.175,111.478-46.175
			C602.536,149.735,660.823,193.397,682.586,254.396z"/>
		<path style="fill:none;stroke:white;stroke-width:25;stroke-miterlimit:10;" d="M691.719,307.397v242.54
			c0,68.729-55.713,124.442-124.45,124.442h-24.861c-12.181,0-24.06-1.309-35.493-3.796c-0.775-5.604-1.171-11.329-1.171-17.148
			v-242.54c0-87.073,70.589-157.653,157.662-157.653c6.491,0,12.895,0.396,19.18,1.154
			C688.5,270.958,691.719,288.803,691.719,307.397z"/>
		<path style="fill:none;stroke:white;stroke-width:25;stroke-miterlimit:10;" d="M915.862,613.923l-94.804-2.04
			c0,45.839-18.577,87.34-48.62,117.375c-30.035,30.043-71.536,48.62-117.375,48.62h-24.869c-62.91,0-114.921-46.683-123.28-107.294
			c11.432,2.488,23.312,3.796,35.493,3.796h24.861c68.737,0,124.45-55.713,124.45-124.442v-242.54
			c0-18.594-3.219-36.439-9.133-53.002c35.871,4.347,68.023,20.746,92.299,45.022c28.528,28.528,46.175,67.946,46.175,111.478
			v88.494L915.862,613.923z"/>
	</g>
</g>
</svg>
